<svg xmlns="http://www.w3.org/2000/svg" xmlns:xlink="http://www.w3.org/1999/xlink" width="1260" height="1080" viewBox="0 0 1260 1080">
  <defs>
    <linearGradient id="linear-gradient" x1="0.162" x2="0.854" y2="1" gradientUnits="objectBoundingBox">
      <stop offset="0" stop-color="#5736b8"/>
      <stop offset="1" stop-color="#9252c8"/>
    </linearGradient>
    <linearGradient id="linear-gradient-2" x1="0.162" x2="0.854" y2="1" gradientUnits="objectBoundingBox">
      <stop offset="0" stop-color="#c2cbd8"/>
      <stop offset="1" stop-color="#77a3bd"/>
    </linearGradient>
    <linearGradient id="linear-gradient-3" x1="0.646" x2="0.193" y2="1" gradientUnits="objectBoundingBox">
      <stop offset="0" stop-color="#ffa4ed"/>
      <stop offset="1" stop-color="#8e2bff"/>
    </linearGradient>
    <linearGradient id="linear-gradient-4" x1="0.5" x2="0.5" y2="1" gradientUnits="objectBoundingBox">
      <stop offset="0" stop-color="#3ff6d1"/>
      <stop offset="1" stop-color="#194672"/>
    </linearGradient>
    <linearGradient id="linear-gradient-5" x1="0.183" y1="0.204" x2="1" y2="0.911" gradientUnits="objectBoundingBox">
      <stop offset="0" stop-color="#ffd2f3"/>
      <stop offset="1" stop-color="#4f8dde"/>
    </linearGradient>
    <linearGradient id="linear-gradient-6" x1="0.646" x2="0.193" y2="1" gradientUnits="objectBoundingBox">
      <stop offset="0" stop-color="#8ebfff"/>
      <stop offset="1" stop-color="#5c48ee"/>
    </linearGradient>
    <linearGradient id="linear-gradient-7" x1="0.162" x2="0.854" y2="1" gradientUnits="objectBoundingBox">
      <stop offset="0" stop-color="#51c94d"/>
      <stop offset="1" stop-color="#b9fca5"/>
    </linearGradient>
    <clipPath id="clip-hero1260">
      <rect width="1260" height="1080"/>
    </clipPath>
  </defs>
  <g id="hero1260" clip-path="url(#clip-hero1260)">
    <rect width="1260" height="1080" fill="#011832"/>
    <circle id="Ellipse_1" data-name="Ellipse 1" cx="50" cy="50" r="50" transform="translate(163 140)" fill="url(#linear-gradient)"/>
    <circle id="Ellipse_3" data-name="Ellipse 3" cx="50" cy="50" r="50" transform="translate(924 297)" fill="url(#linear-gradient-2)"/>
    <path id="Path_1" data-name="Path 1" d="M0,0,61,39.515,0,80Z" transform="translate(805 698)" fill="#ffab8e"/>
    <path id="Path_3" data-name="Path 3" d="M0,0,92.667,52.852,0,107Z" transform="translate(136.673 624.236) rotate(-141)" fill="url(#linear-gradient-3)"/>
    <path id="Path_4" data-name="Path 4" d="M606.993,766.782h36.125l21.937,25.034v29.932l-21.937,25.034H606.993l-21.937-25.034V791.816Z" transform="matrix(0.899, -0.438, 0.438, 0.899, -573.212, 311.543)" fill="url(#linear-gradient-4)"/>
    <path id="Path_6" data-name="Path 6" d="M1457.173,630.453h60.551l29.725,50-29.725,50h-60.551l-29.725-50Z" transform="translate(-404 -32)" fill="url(#linear-gradient-5)"/>
    <g id="Rectangle_6" data-name="Rectangle 6" transform="translate(349 427)" fill="none" stroke="#001429" stroke-width="12">
      <rect width="563" height="113" stroke="none"/>
      <rect x="6" y="6" width="551" height="101" fill="none"/>
    </g>
    <text id="Bryan_Gonzalez" data-name="Bryan Gonzalez" transform="translate(318 511)" fill="#fff" font-size="82" font-family="YuGothic-Medium, Yu Gothic" font-weight="500" letter-spacing="0.022em"><tspan x="0" y="0">Bryan Gonzalez</tspan></text>
    <text id="Front_End_Developer" data-name="Front End Developer" transform="translate(480 587)" fill="#fff" font-size="24" font-family="CourierNewPSMT, Courier New" letter-spacing="0.022em" opacity="0.38"><tspan x="0" y="0">Front End Developer</tspan></text>
    <path id="Path_2" data-name="Path 2" d="M0,0,85,45.936,0,93Z" transform="matrix(-0.588, 0.809, -0.809, -0.588, 918.85, 145.462)" fill="url(#linear-gradient-6)"/>
    <circle id="Ellipse_4" data-name="Ellipse 4" cx="40" cy="40" r="40" transform="translate(509 217)" fill="url(#linear-gradient-7)"/>
  </g>
</svg>
