<svg xmlns="http://www.w3.org/2000/svg" xmlns:xlink="http://www.w3.org/1999/xlink" width="1024" height="768" viewBox="0 0 1024 768">
  <defs>
    <linearGradient id="linear-gradient" x1="0.162" x2="0.854" y2="1" gradientUnits="objectBoundingBox">
      <stop offset="0" stop-color="#5736b8"/>
      <stop offset="1" stop-color="#9252c8"/>
    </linearGradient>
    <linearGradient id="linear-gradient-2" x1="0.162" x2="0.854" y2="1" gradientUnits="objectBoundingBox">
      <stop offset="0" stop-color="#d4b3ca"/>
      <stop offset="1" stop-color="#2985f5"/>
    </linearGradient>
    <linearGradient id="linear-gradient-3" x1="0.646" x2="0.193" y2="1" gradientUnits="objectBoundingBox">
      <stop offset="0" stop-color="#8ebfff"/>
      <stop offset="1" stop-color="#5c48ee"/>
    </linearGradient>
    <linearGradient id="linear-gradient-4" x1="0.162" x2="0.854" y2="1" gradientUnits="objectBoundingBox">
      <stop offset="0" stop-color="#c2cbd8"/>
      <stop offset="1" stop-color="#77a3bd"/>
    </linearGradient>
    <linearGradient id="linear-gradient-5" x1="0.183" y1="0.204" x2="1" y2="0.911" gradientUnits="objectBoundingBox">
      <stop offset="0" stop-color="#ffd2f3"/>
      <stop offset="1" stop-color="#4f8dde"/>
    </linearGradient>
    <linearGradient id="linear-gradient-6" x1="0.646" x2="0.193" y2="1" gradientUnits="objectBoundingBox">
      <stop offset="0" stop-color="#ffa4ed"/>
      <stop offset="1" stop-color="#8e2bff"/>
    </linearGradient>
    <linearGradient id="linear-gradient-7" x1="0.162" x2="0.854" y2="1" gradientUnits="objectBoundingBox">
      <stop offset="0" stop-color="#51c94d"/>
      <stop offset="1" stop-color="#b9fca5"/>
    </linearGradient>
    <linearGradient id="linear-gradient-8" x1="0.5" x2="0.5" y2="1" gradientUnits="objectBoundingBox">
      <stop offset="0" stop-color="#3ff6d1"/>
      <stop offset="1" stop-color="#194672"/>
    </linearGradient>
    <clipPath id="clip-heroIpad">
      <rect width="1024" height="768"/>
    </clipPath>
  </defs>
  <g id="heroIpad" clip-path="url(#clip-heroIpad)">
    <rect width="1024" height="768" fill="#011832"/>
    <g id="Rectangle_6" data-name="Rectangle 6" transform="translate(233 352)" fill="none" stroke="#001429" stroke-width="12">
      <rect width="516" height="73" stroke="none"/>
      <rect x="6" y="6" width="504" height="61" fill="none"/>
    </g>
    <text id="Bryan_Gonzalez" data-name="Bryan Gonzalez" transform="translate(209 420)" fill="#fff" font-size="69" font-family="YuGothic-Medium, Yu Gothic" font-weight="500" letter-spacing="0.091em"><tspan x="0" y="0">Bryan Gonzalez</tspan></text>
    <text id="Front_End_Developer" data-name="Front End Developer" transform="translate(371 471)" fill="#fff" font-size="24" font-family="CourierNewPSMT, Courier New" letter-spacing="0.022em" opacity="0.38"><tspan x="0" y="0">Front End Developer</tspan></text>
    <circle id="Ellipse_1" data-name="Ellipse 1" cx="60" cy="60" r="60" transform="translate(93 87)" fill="url(#linear-gradient)"/>
    <path id="Path_1" data-name="Path 1" d="M0,0,45,29.151,0,59.016Z" transform="translate(362 215)" fill="#ffab8e"/>
    <path id="Path_53" data-name="Path 53" d="M45,0A45,45,0,1,1,0,45,45,45,0,0,1,45,0Z" transform="translate(512 64)" fill="url(#linear-gradient-2)"/>
    <path id="Path_2" data-name="Path 2" d="M0,0,70,39.924,0,80.827Z" transform="translate(911.834 114.167) rotate(90)" fill="url(#linear-gradient-3)"/>
    <circle id="Ellipse_3" data-name="Ellipse 3" cx="40" cy="40" r="40" transform="translate(736 256)" fill="url(#linear-gradient-4)"/>
    <path id="Path_6" data-name="Path 6" d="M1452.219,630.453h50.459l24.771,41.667-24.771,41.667h-50.459l-24.771-41.667Z" transform="translate(-618 -157)" fill="url(#linear-gradient-5)"/>
    <path id="Path_3" data-name="Path 3" d="M0,0,80,45.627,0,92.374Z" transform="translate(690.673 659.236) rotate(-141)" fill="url(#linear-gradient-6)"/>
    <circle id="Ellipse_4" data-name="Ellipse 4" cx="30" cy="30" r="30" transform="translate(92 493)" fill="url(#linear-gradient-7)"/>
    <path id="Path_4" data-name="Path 4" d="M604.25,766.782h31.61l19.2,21.9v26.19l-19.2,21.9H604.25l-19.2-21.9v-26.19Z" transform="matrix(0.899, -0.438, 0.438, 0.899, -619.212, 169.543)" fill="url(#linear-gradient-8)"/>
  </g>
</svg>
