<svg xmlns="http://www.w3.org/2000/svg" xmlns:xlink="http://www.w3.org/1999/xlink" width="1080" height="1080" viewBox="0 0 1080 1080">
  <defs>
    <linearGradient id="linear-gradient" x1="0.183" y1="0.204" x2="1" y2="0.911" gradientUnits="objectBoundingBox">
      <stop offset="0" stop-color="#ffd2f3"/>
      <stop offset="1" stop-color="#4f8dde"/>
    </linearGradient>
    <linearGradient id="linear-gradient-2" x1="0.162" x2="0.854" y2="1" gradientUnits="objectBoundingBox">
      <stop offset="0" stop-color="#51c94d"/>
      <stop offset="1" stop-color="#b9fca5"/>
    </linearGradient>
    <linearGradient id="linear-gradient-3" x1="0.162" x2="0.854" y2="1" gradientUnits="objectBoundingBox">
      <stop offset="0" stop-color="#5736b8"/>
      <stop offset="1" stop-color="#9252c8"/>
    </linearGradient>
    <linearGradient id="linear-gradient-4" x1="0.5" x2="0.5" y2="1" gradientUnits="objectBoundingBox">
      <stop offset="0" stop-color="#3ff6d1"/>
      <stop offset="1" stop-color="#194672"/>
    </linearGradient>
    <linearGradient id="linear-gradient-5" x1="0.646" x2="0.193" y2="1" gradientUnits="objectBoundingBox">
      <stop offset="0" stop-color="#8ebfff"/>
      <stop offset="1" stop-color="#5c48ee"/>
    </linearGradient>
    <clipPath id="clip-hero1080">
      <rect width="1080" height="1080"/>
    </clipPath>
  </defs>
  <g id="hero1080" clip-path="url(#clip-hero1080)">
    <rect width="1080" height="1080" fill="#011832"/>
    <path id="Path_6" data-name="Path 6" d="M1452.219,630.453h50.459l24.771,40-24.771,40h-50.459l-24.771-40Z" transform="translate(-561 -260)" fill="url(#linear-gradient)"/>
    <g id="Group_12" data-name="Group 12" transform="translate(0 -49)">
      <g id="Rectangle_6" data-name="Rectangle 6" transform="translate(310 527)" fill="none" stroke="#001429" stroke-width="12">
        <rect width="460" height="102" stroke="none"/>
        <rect x="6" y="6" width="448" height="90" fill="none"/>
      </g>
      <text id="Bryan_Gonzalez" data-name="Bryan Gonzalez" transform="translate(248 606)" fill="#fff" font-size="79" font-family="YuGothic-Medium, Yu Gothic" font-weight="500" letter-spacing="0.022em"><tspan x="0" y="0">Bryan Gonzalez</tspan></text>
    </g>
    <text id="Front_End_Developer" data-name="Front End Developer" transform="translate(422 619)" fill="#fff" font-size="20" font-family="CourierNewPSMT, Courier New" letter-spacing="0.022em" opacity="0.38"><tspan x="0" y="0">Front End Developer</tspan></text>
    <circle id="Ellipse_4" data-name="Ellipse 4" cx="40" cy="40" r="40" transform="translate(780 710)" fill="url(#linear-gradient-2)"/>
    <path id="Path_55" data-name="Path 55" d="M50,0A50,50,0,1,1,0,50,50,50,0,0,1,50,0Z" transform="translate(103 176)" fill="url(#linear-gradient-3)"/>
    <path id="Path_4" data-name="Path 4" d="M606.993,766.782h36.125l21.937,25.034v29.932l-21.937,25.034H606.993l-21.937-25.034V791.816Z" transform="matrix(0.899, -0.438, 0.438, 0.899, -706.212, 423.543)" fill="url(#linear-gradient-4)"/>
    <path id="Path_1" data-name="Path 1" d="M0,0,61,39.515,0,80Z" transform="matrix(-0.719, 0.695, -0.695, -0.719, 422.226, 407.587)" fill="#ffab8e"/>
    <path id="Path_2" data-name="Path 2" d="M0,0,85,45.936,0,93Z" transform="matrix(-0.588, 0.809, -0.809, -0.588, 720.85, 168.463)" fill="url(#linear-gradient-5)"/>
  </g>
</svg>
