<svg xmlns="http://www.w3.org/2000/svg" xmlns:xlink="http://www.w3.org/1999/xlink" width="1920" height="1080" viewBox="0 0 1920 1080">
  <defs>
    <linearGradient id="linear-gradient" x1="0.162" x2="0.854" y2="1" gradientUnits="objectBoundingBox">
      <stop offset="0" stop-color="#5736b8"/>
      <stop offset="1" stop-color="#9252c8"/>
    </linearGradient>
    <linearGradient id="linear-gradient-2" x1="0.162" x2="0.854" y2="1" gradientUnits="objectBoundingBox">
      <stop offset="0" stop-color="#d4b3ca"/>
      <stop offset="1" stop-color="#2985f5"/>
    </linearGradient>
    <linearGradient id="linear-gradient-3" x1="0.162" x2="0.854" y2="1" gradientUnits="objectBoundingBox">
      <stop offset="0" stop-color="#c2cbd8"/>
      <stop offset="1" stop-color="#77a3bd"/>
    </linearGradient>
    <linearGradient id="linear-gradient-4" x1="0.162" x2="0.854" y2="1" gradientUnits="objectBoundingBox">
      <stop offset="0" stop-color="#51c94d"/>
      <stop offset="1" stop-color="#b9fca5"/>
    </linearGradient>
    <linearGradient id="linear-gradient-5" x1="0.646" x2="0.193" y2="1" gradientUnits="objectBoundingBox">
      <stop offset="0" stop-color="#8ebfff"/>
      <stop offset="1" stop-color="#5c48ee"/>
    </linearGradient>
    <linearGradient id="linear-gradient-6" x1="0.646" x2="0.193" y2="1" gradientUnits="objectBoundingBox">
      <stop offset="0" stop-color="#ffa4ed"/>
      <stop offset="1" stop-color="#8e2bff"/>
    </linearGradient>
    <linearGradient id="linear-gradient-7" x1="0.5" x2="0.5" y2="1" gradientUnits="objectBoundingBox">
      <stop offset="0" stop-color="#3ff6d1"/>
      <stop offset="1" stop-color="#194672"/>
    </linearGradient>
    <linearGradient id="linear-gradient-8" x1="0.183" y1="0.204" x2="1" y2="0.911" gradientUnits="objectBoundingBox">
      <stop offset="0" stop-color="#ffd2f3"/>
      <stop offset="1" stop-color="#4f8dde"/>
    </linearGradient>
    <clipPath id="clip-Web_1920_1">
      <rect width="1920" height="1080"/>
    </clipPath>
  </defs>
  <g id="Web_1920_1" data-name="Web 1920 – 1" clip-path="url(#clip-Web_1920_1)">
    <rect width="1920" height="1080" fill="#011832"/>
    <circle id="Ellipse_1" data-name="Ellipse 1" cx="100" cy="100" r="100" transform="translate(263 142)" fill="url(#linear-gradient)"/>
    <circle id="Ellipse_2" data-name="Ellipse 2" cx="75" cy="75" r="75" transform="translate(1024 129)" fill="url(#linear-gradient-2)"/>
    <circle id="Ellipse_3" data-name="Ellipse 3" cx="60" cy="60" r="60" transform="translate(1364 342)" fill="url(#linear-gradient-3)"/>
    <circle id="Ellipse_4" data-name="Ellipse 4" cx="60" cy="60" r="60" transform="translate(303 591)" fill="url(#linear-gradient-4)"/>
    <path id="Path_1" data-name="Path 1" d="M0,0,61,39.515,0,80Z" transform="translate(714 268)" fill="#ffab8e"/>
    <path id="Path_2" data-name="Path 2" d="M0,0,92.667,52.852,0,107Z" transform="translate(1759.833 157.167) rotate(90)" fill="url(#linear-gradient-5)"/>
    <path id="Path_3" data-name="Path 3" d="M0,0,92.667,52.852,0,107Z" transform="translate(1245.673 881.236) rotate(-141)" fill="url(#linear-gradient-6)"/>
    <path id="Path_4" data-name="Path 4" d="M617.961,766.782h54.188l32.906,37.551v44.9l-32.906,37.551H617.961l-32.906-37.551v-44.9Z" transform="matrix(0.899, -0.438, 0.438, 0.899, -262.212, 350.543)" fill="url(#linear-gradient-7)"/>
    <path id="Path_6" data-name="Path 6" d="M1457.173,630.453h60.551l29.725,50-29.725,50h-60.551l-29.725-50Z" transform="translate(10)" fill="url(#linear-gradient-8)"/>
    <g id="Rectangle_6" data-name="Rectangle 6" transform="translate(669 464)" fill="none" stroke="#001429" stroke-width="12">
      <rect width="583" height="152" stroke="none"/>
      <rect x="6" y="6" width="571" height="140" fill="none"/>
    </g>
    <text id="Bryan_Gonzalez" data-name="Bryan Gonzalez" transform="translate(579 576)" fill="#fff" font-size="105" font-family="YuGothic-Medium, Yu Gothic" font-weight="500" letter-spacing="0.022em"><tspan x="0" y="0">Bryan Gonzalez</tspan></text>
    <text id="Front_End_Developer" data-name="Front End Developer" transform="translate(819 658)" fill="#fff" font-size="24" font-family="CourierNewPSMT, Courier New" letter-spacing="0.022em" opacity="0.38"><tspan x="0" y="0">Front End Developer</tspan></text>
  </g>
</svg>
